<svg width="80" height="80" viewBox="0 0 80 80" fill="none" xmlns="http://www.w3.org/2000/svg">
<circle cx="40" cy="40" r="37.5" fill="white" stroke="#6764FF" stroke-width="5"/>
<path d="M40.4128 23C39.5582 22.9997 38.7148 23.1942 37.9465 23.5686C37.1783 23.943 36.5055 24.4875 35.9792 25.1608C35.4529 25.8341 35.0869 26.6185 34.9091 27.4544C34.7312 28.2903 34.7462 29.1557 34.9528 29.985L30.3553 28.25C29.3772 27.9027 28.3026 27.9478 27.3572 28.376C26.4117 28.8042 25.6689 29.5821 25.2848 30.5463C24.9008 31.5106 24.9053 32.5861 25.2974 33.5471C25.6895 34.5081 26.4388 35.2797 27.3878 35.7L32.9128 38.0125V43.99L30.0153 52.69C29.6785 53.6904 29.7493 54.7833 30.2123 55.7319C30.6753 56.6806 31.4932 57.4087 32.4891 57.7588C33.485 58.1088 34.5787 58.0526 35.5334 57.6022C36.4881 57.1519 37.2271 56.3436 37.5903 55.3525L40.3928 47.785L43.2053 55.345C43.5664 56.3374 44.3041 57.1474 45.2585 57.5995C46.2129 58.0515 47.307 58.109 48.3036 57.7596C49.3001 57.4102 50.1188 56.682 50.582 55.733C51.0451 54.784 51.1155 53.6906 50.7778 52.69L47.9128 43.9925V38.0025L53.3728 35.7375C54.3514 35.3328 55.1314 34.5591 55.544 33.5838C55.9567 32.6085 55.9689 31.51 55.5779 30.5258C55.187 29.5416 54.4244 28.7508 53.455 28.3245C52.4857 27.8981 51.3874 27.8705 50.3978 28.2475L45.8778 29.9625C46.0785 29.1345 46.0889 28.2718 45.9081 27.4392C45.7273 26.6067 45.3601 25.8259 44.834 25.1557C44.308 24.4856 43.6368 23.9434 42.871 23.57C42.1053 23.1966 41.2648 23.0017 40.4128 23ZM37.2878 28.625C37.2878 27.7962 37.617 27.0013 38.2031 26.4153C38.7891 25.8292 39.584 25.5 40.4128 25.5C41.2416 25.5 42.0365 25.8292 42.6225 26.4153C43.2086 27.0013 43.5378 27.7962 43.5378 28.625C43.5378 29.4538 43.2086 30.2487 42.6225 30.8347C42.0365 31.4208 41.2416 31.75 40.4128 31.75C39.584 31.75 38.7891 31.4208 38.2031 30.8347C37.617 30.2487 37.2878 29.4538 37.2878 28.625ZM51.2878 30.585C51.663 30.4455 52.078 30.4586 52.4437 30.6215C52.8094 30.7844 53.0967 31.0841 53.2439 31.4564C53.3911 31.8287 53.3865 32.2439 53.2312 32.6128C53.0758 32.9818 52.782 33.2752 52.4128 33.43L46.1828 36.0125C45.9547 36.1074 45.7598 36.2677 45.6227 36.4733C45.4857 36.6789 45.4126 36.9204 45.4128 37.1675V44.1925C45.4126 44.3258 45.4337 44.4583 45.4753 44.585L48.4028 53.4725C48.5354 53.8511 48.5122 54.2669 48.3383 54.6283C48.1643 54.9898 47.8539 55.2674 47.4753 55.4C47.0967 55.5326 46.6809 55.5094 46.3195 55.3354C45.958 55.1615 45.6804 54.8511 45.5478 54.4725L42.5728 46.4675C41.8203 44.4475 38.9628 44.45 38.2153 46.47L35.2453 54.4825C35.105 54.8521 34.8258 55.1522 34.4672 55.3188C34.1087 55.4853 33.6992 55.5051 33.3263 55.374C32.9533 55.2428 32.6464 54.9711 32.4711 54.6167C32.2958 54.2624 32.2659 53.8536 32.3878 53.4775L35.3478 44.5875C35.3905 44.4602 35.4125 44.3268 35.4128 44.1925V37.18C35.4132 36.9332 35.3405 36.6918 35.2039 36.4863C35.0673 36.2808 34.873 36.1203 34.6453 36.025L28.3528 33.395C27.9899 33.2401 27.7019 32.9494 27.5503 32.5851C27.3987 32.2208 27.3954 31.8117 27.5413 31.445C27.6871 31.0784 27.9704 30.7832 28.3308 30.6225C28.6912 30.4619 29.1001 30.4484 29.4703 30.585L38.4003 33.9625C39.6828 34.45 41.1003 34.4475 42.3828 33.9625L51.2878 30.5875V30.585Z" fill="#6764FF"/>
</svg>
