<svg width="36" height="36" viewBox="0 0 36 36" fill="none" xmlns="http://www.w3.org/2000/svg">
<path fill-rule="evenodd" clip-rule="evenodd" d="M3.59999 7.20001C3.28173 7.20001 2.97651 7.32644 2.75147 7.55148C2.52642 7.77653 2.39999 8.08175 2.39999 8.40001C2.39999 8.71827 2.52642 9.0235 2.75147 9.24854C2.97651 9.47358 3.28173 9.60001 3.59999 9.60001H32.4C32.7183 9.60001 33.0235 9.47358 33.2485 9.24854C33.4736 9.0235 33.6 8.71827 33.6 8.40001C33.6 8.08175 33.4736 7.77653 33.2485 7.55148C33.0235 7.32644 32.7183 7.20001 32.4 7.20001H3.59999ZM2.39999 18C2.39999 17.6818 2.52642 17.3765 2.75147 17.1515C2.97651 16.9264 3.28173 16.8 3.59999 16.8H32.4C32.7183 16.8 33.0235 16.9264 33.2485 17.1515C33.4736 17.3765 33.6 17.6818 33.6 18C33.6 18.3183 33.4736 18.6235 33.2485 18.8485C33.0235 19.0736 32.7183 19.2 32.4 19.2H3.59999C3.28173 19.2 2.97651 19.0736 2.75147 18.8485C2.52642 18.6235 2.39999 18.3183 2.39999 18ZM2.39999 27.6C2.39999 27.2818 2.52642 26.9765 2.75147 26.7515C2.97651 26.5264 3.28173 26.4 3.59999 26.4H32.4C32.7183 26.4 33.0235 26.5264 33.2485 26.7515C33.4736 26.9765 33.6 27.2818 33.6 27.6C33.6 27.9183 33.4736 28.2235 33.2485 28.4485C33.0235 28.6736 32.7183 28.8 32.4 28.8H3.59999C3.28173 28.8 2.97651 28.6736 2.75147 28.4485C2.52642 28.2235 2.39999 27.9183 2.39999 27.6Z" fill="#000A16"/>
</svg>
