<svg   fill="none" xmlns="http://www.w3.org/2000/svg" preserveAspectRatio="none">
<path d="M385 106.75C321 49.75 257 49.75 193 106.75C136.579 150.25 72.579 150.25 1.00001 106.75" stroke="#808080" stroke-opacity="0.3"/>
<path d="M385 99.75C321 42.75 257 42.75 193 99.75C136.579 143.25 72.5789 143.25 1 99.75" stroke="#808080" stroke-opacity="0.27"/>
<path d="M385 92.75C321 35.75 257 35.75 193 92.75C136.579 136.25 72.579 136.25 1.00001 92.75" stroke="#808080" stroke-opacity="0.24"/>
<path d="M385 85.75C321 28.75 257 28.75 193 85.75C136.579 129.25 72.5789 129.25 1 85.75" stroke="#808080" stroke-opacity="0.21"/>
<path d="M385 78.75C321 21.75 257 21.75 193 78.75C136.579 122.25 72.5789 122.25 1 78.75" stroke="#808080" stroke-opacity="0.18"/>
<path d="M385 71.75C321 14.75 257 14.75 193 71.75C136.579 115.25 72.5789 115.25 1 71.75" stroke="#808080" stroke-opacity="0.15"/>
<path d="M385 64.75C321 7.75 257 7.75 193 64.75C136.579 108.25 72.5789 108.25 1 64.75" stroke="#808080" stroke-opacity="0.12"/>
<path d="M385 57.75C321 0.75 257 0.75 193 57.75C136.579 101.25 72.5789 101.25 1 57.75" stroke="#808080" stroke-opacity="0.09"/>
<path d="M385 50.75C321 -6.25 257 -6.25 193 50.75C136.579 94.25 72.5789 94.25 1 50.75" stroke="#808080" stroke-opacity="0.06"/>
<path d="M385 43.75C321 -13.25 257 -13.25 193 43.75C136.579 87.25 72.5789 87.25 1 43.75" stroke="#808080" stroke-opacity="0.03"/>
</svg>
