<svg width="80" height="80" viewBox="0 0 80 80" fill="none" xmlns="http://www.w3.org/2000/svg">
<circle cx="40" cy="40" r="37.5" fill="white" stroke="#F3F800" stroke-width="5"/>
<g clip-path="url(#clip0)">
<path fill-rule="evenodd" clip-rule="evenodd" d="M34.025 20C29.9467 20 26.6667 23.4217 26.6667 27.6133C26.6667 30.1617 27.88 32.425 29.745 33.8067C28.7838 34.5268 28.0047 35.4621 27.4701 36.5376C26.9355 37.6132 26.6604 38.799 26.6667 40C26.6667 42.55 27.88 44.8117 29.745 46.1933C28.7838 46.9135 28.0047 47.8488 27.4701 48.9243C26.9355 49.9998 26.6604 51.1856 26.6667 52.3867C26.6667 56.5783 29.9467 60 34.025 60C38.1017 60 41.3833 56.5783 41.3833 52.3867V45.95C42.6722 47.0246 44.2969 47.6138 45.975 47.615C50.0533 47.6133 53.3333 44.1917 53.3333 40C53.3333 37.45 52.1217 35.1883 50.255 33.8067C51.2162 33.0865 51.9953 32.1512 52.5299 31.0757C53.0645 30.0002 53.3396 28.8144 53.3333 27.6133C53.3333 23.4217 50.0533 20 45.975 20H34.025ZM29.4317 27.6133C29.4317 24.9617 31.5017 22.8383 34.025 22.8383H38.6167V32.3883H34.025C31.5017 32.3883 29.4317 30.2633 29.4317 27.6133ZM45.975 32.3867H41.3833V22.8367H45.975C48.5 22.8367 50.5683 24.9617 50.5683 27.6133C50.5683 30.2633 48.5 32.3867 45.975 32.3867ZM29.4333 40C29.4333 37.35 31.5033 35.225 34.0267 35.225H38.6183V44.775H34.025C31.5 44.775 29.4317 42.65 29.4317 40H29.4333ZM41.3833 40C41.3833 37.35 43.4533 35.225 45.9767 35.225C48.5017 35.225 50.57 37.3483 50.57 40C50.57 42.65 48.5017 44.775 45.9767 44.775C43.4533 44.775 41.385 42.6517 41.385 40H41.3833ZM29.4333 52.3867C29.4333 49.7367 31.5033 47.6133 34.0267 47.6133H38.6183V52.3867C38.6183 55.0383 36.5517 57.1617 34.0267 57.1617C31.5033 57.1617 29.4333 55.0383 29.4333 52.3867Z" fill="#F3F800"/>
</g>
<defs>
<clipPath id="clip0">
<rect width="40" height="40" fill="white" transform="translate(20 20)"/>
</clipPath>
</defs>
</svg>
