<svg width="53" height="80" viewBox="0 0 53 80" fill="none" xmlns="http://www.w3.org/2000/svg">
<path d="M24.3 21.68C26.94 21.68 29.1 22.08 30.78 22.88C32.5 23.64 34.02 24.54 35.34 25.58C36.14 26.18 36.74 26.26 37.14 25.82C37.58 25.34 37.88 24.24 38.04 22.52H39.42C39.34 24.08 39.28 26 39.24 28.28C39.2 30.56 39.18 33.56 39.18 37.28H37.8C37.64 35.4 37.38 33.76 37.02 32.36C36.7 30.96 36.22 29.72 35.58 28.64C34.94 27.56 34.02 26.6 32.82 25.76C31.9 25 30.86 24.42 29.7 24.02C28.58 23.58 27.42 23.36 26.22 23.36C24.02 23.36 22.16 23.98 20.64 25.22C19.16 26.42 17.96 28.02 17.04 30.02C16.16 31.98 15.52 34.18 15.12 36.62C14.76 39.02 14.58 41.44 14.58 43.88C14.58 46.36 14.78 48.82 15.18 51.26C15.58 53.66 16.22 55.84 17.1 57.8C18.02 59.76 19.24 61.34 20.76 62.54C22.28 63.7 24.14 64.28 26.34 64.28C27.5 64.28 28.64 64.08 29.76 63.68C30.92 63.28 31.96 62.7 32.88 61.94C34.64 60.74 35.82 59.18 36.42 57.26C37.06 55.3 37.52 52.76 37.8 49.64H39.18C39.18 53.52 39.2 56.66 39.24 59.06C39.28 61.42 39.34 63.4 39.42 65H38.04C37.88 63.28 37.6 62.2 37.2 61.76C36.84 61.32 36.22 61.38 35.34 61.94C33.86 62.98 32.28 63.9 30.6 64.7C28.96 65.46 26.84 65.84 24.24 65.84C19.88 65.84 16.04 64.98 12.72 63.26C9.44 61.54 6.88 59.06 5.04 55.82C3.24 52.58 2.34 48.68 2.34 44.12C2.34 39.64 3.28 35.72 5.16 32.36C7.04 29 9.62 26.38 12.9 24.5C16.22 22.62 20.02 21.68 24.3 21.68Z" fill="#000A16"/>
<path d="M40.68 31.22C35.92 31.22 32.3967 32.27 30.11 34.37C27.8 36.4467 26.645 39.4333 26.645 43.33C26.645 45.8733 27.2167 48.1017 28.36 50.015C29.48 51.905 31.1133 53.375 33.26 54.425C35.4067 55.475 37.985 56 40.995 56C41.555 56 42.36 55.9883 43.41 55.965C44.46 55.9183 45.3817 55.895 46.175 55.895C47.2717 55.895 48.345 55.9067 49.395 55.93C50.445 55.93 51.285 55.9533 51.915 56V55.3C51.1917 55.2533 50.655 55.16 50.305 55.02C49.9317 54.88 49.6867 54.6 49.57 54.18C49.43 53.76 49.36 53.13 49.36 52.29V34.93C49.36 34.0667 49.43 33.4367 49.57 33.04C49.6867 32.62 49.9317 32.34 50.305 32.2C50.655 32.0367 51.1917 31.9433 51.915 31.92V31.22C51.285 31.2433 50.445 31.2783 49.395 31.325C48.345 31.3483 47.295 31.3483 46.245 31.325C45.405 31.3017 44.4483 31.2783 43.375 31.255C42.3017 31.2317 41.4033 31.22 40.68 31.22ZM40.435 31.85C41.5083 31.85 42.2083 32.0483 42.535 32.445C42.8617 32.8417 43.025 33.6467 43.025 34.86V52.36C43.025 53.5733 42.8617 54.3783 42.535 54.775C42.185 55.1717 41.4733 55.37 40.4 55.37C38.6267 55.37 37.215 54.915 36.165 54.005C35.115 53.0717 34.3683 51.7183 33.925 49.945C33.4583 48.1717 33.225 46.0133 33.225 43.47C33.225 39.55 33.7967 36.6333 34.94 34.72C36.06 32.8067 37.8917 31.85 40.435 31.85Z" fill="#000A16"/>
</svg>
