<svg width="48" height="48" viewBox="0 0 48 48" fill="none" xmlns="http://www.w3.org/2000/svg">
<path d="M3.7776 12.6865L21.7776 22.3561C22.3824 22.6801 23.1648 22.8337 23.952 22.8337C24.7392 22.8337 25.5216 22.6801 26.1264 22.3561L44.1264 12.6865C45.3 12.0553 46.4088 9.6001 44.256 9.6001H3.6504C1.4976 9.6001 2.6064 12.0553 3.7776 12.6865ZM44.6712 17.9737L26.1264 27.6385C25.3104 28.0657 24.7392 28.1161 23.952 28.1161C23.1648 28.1161 22.5936 28.0657 21.7776 27.6385C20.9616 27.2113 4.6584 18.6649 3.3264 17.9713C2.3904 17.4817 2.4 18.0553 2.4 18.4969V36.0001C2.4 37.0081 3.7584 38.4001 4.8 38.4001H43.2C44.2416 38.4001 45.6 37.0081 45.6 36.0001V18.4993C45.6 18.0577 45.6096 17.4841 44.6712 17.9737Z" fill="#000A16"/>
</svg>
