<svg width="500" height="500" viewBox="0 0 500 500" fill="none" xmlns="http://www.w3.org/2000/svg">
<g clip-path="url(#clip0)">
<path d="M276.219 497.496H305.368C298.267 332.272 305.392 167.047 309.97 1.82568L258.752 9.28334L276.219 497.496Z" fill="#2D2419" stroke="black" stroke-width="3.25128"/>
<path d="M203.137 498.332C223.184 340.137 232.425 167.029 211.799 8.82067L254.756 7.06299L262.426 31.6711L267.029 7.06299H286.973L275.785 498.21L203.137 498.332Z" fill="#7C653B" stroke="black" stroke-width="3.25128"/>
<path d="M464.787 33.46L494.32 53.6738L494.703 80.9184L478.594 92.3436L473.608 121.346H488.566L484.347 207.914L470.923 210.111V220.218L480.129 277.344L445.228 293.163L437.94 347.651L378.49 267.236L397.667 50.158L464.787 33.46Z" fill="#312822" stroke="black" stroke-width="3.25128"/>
<path d="M161.219 57.5073L176.678 71.1794L210.85 73.665L211.934 50.6718H181.289L165.017 47.5645L161.219 57.5073Z" fill="#61512E" stroke="black" stroke-width="3.25128"/>
<path d="M15.0381 44.3719L164.744 46.8575L186.441 69.2299H203.798L208.137 41.8859L340.484 49.3436L472.831 22L459.813 71.7167L431.608 74.2026L461.983 89.1172L459.813 99.0601L414.251 106.518L461.982 121.432L457.643 198.492L422.927 203.464L455.471 220.864L451.131 275.551L401.228 285.494L448.96 292.951L455.468 362.553C313.602 332.814 160.175 332.88 2 345.153L10.6784 258.15L58.4097 253.179L15.016 245.721V193.519L30.2035 183.577L12.8463 176.119L17.1857 163.69L56.2388 158.718L17.1857 151.261V104.033L49.7294 91.6037L12.8451 89.1179L15.0381 44.3719Z" fill="#B18F5F" stroke="black" stroke-width="3.25128"/>
<path d="M448.567 293.771L477.857 294.393L488.705 359.645L456.702 360.887L448.567 293.771Z" fill="#61512E" stroke="black" stroke-width="3.25128"/>
<path d="M448.05 275.153L480.594 278.26V221.708L454.016 220.466L448.05 275.153Z" fill="#61512E" stroke="black" stroke-width="3.25128"/>
<path d="M455.644 196.224L482.765 206.789L489.273 121.029L462.695 122.271L455.644 196.224Z" fill="#61512E" stroke="black" stroke-width="3.25128"/>
<path d="M458.894 99.2685L477.336 107.347L491.981 111.076L493.066 94.2968L478.963 92.4325L462.691 89.3252L458.894 99.2685Z" fill="#61512E" stroke="black" stroke-width="3.25128"/>
<path d="M459.137 71.7063L495.135 82.5593L498.389 35.9503L472.896 22.8999L459.137 71.7063Z" fill="#61512E" stroke="black" stroke-width="3.25128"/>
<path d="M262.216 82.4944C262.216 91.7612 255.659 99.2733 247.571 99.2733C239.483 99.2733 232.926 91.7612 232.926 82.4944C232.926 73.2275 239.483 65.7156 247.571 65.7156C255.659 65.7156 262.216 73.2275 262.216 82.4944Z" fill="black" stroke="#333333" stroke-width="3.25128"/>
<path d="M261.672 81.873C261.672 91.1398 255.116 98.652 247.027 98.652C238.939 98.652 232.382 91.1398 232.382 81.873C232.382 72.6062 238.939 65.0942 247.027 65.0942C255.116 65.0942 261.672 72.6062 261.672 81.873Z" fill="#CCCCCC" stroke="#333333" stroke-width="3.25128"/>
<path d="M122.28 135.44C122.28 136.907 121.907 138.307 121.16 139.64C120.44 140.973 119.453 142.147 118.2 143.16C116.973 144.147 115.52 144.933 113.84 145.52C112.187 146.107 110.427 146.4 108.56 146.4C107.893 146.4 107.36 146.32 106.96 146.16C106.587 145.973 106.16 145.627 105.68 145.12C104.347 148.027 103.253 150.707 102.4 153.16C101.573 155.587 100.92 157.947 100.44 160.24C99.4267 160 98.6 159.573 97.96 158.96C97.32 158.373 96.7333 157.627 96.2 156.72C96.4667 156.213 96.7867 155.547 97.16 154.72C97.5333 153.893 97.9867 152.88 98.52 151.68C99.0533 150.453 99.6667 149 100.36 147.32C101.08 145.613 101.92 143.627 102.88 141.36C103.307 140.32 103.68 139.413 104 138.64C104.32 137.867 104.6 137.147 104.84 136.48C105.08 135.787 105.293 135.107 105.48 134.44C105.693 133.773 105.907 133.04 106.12 132.24C104.867 132.64 103.707 133.107 102.64 133.64C101.6 134.173 100.733 134.733 100.04 135.32C99.8 135.16 99.5467 134.92 99.28 134.6C99.04 134.28 98.8133 133.933 98.6 133.56C98.3867 133.16 98.2 132.76 98.04 132.36C97.88 131.96 97.7867 131.6 97.76 131.28C98.5333 130.747 99.4933 130.253 100.64 129.8C101.787 129.347 103.013 128.96 104.32 128.64C105.627 128.293 106.973 128.027 108.36 127.84C109.773 127.653 111.12 127.56 112.4 127.56C113.92 127.56 115.293 127.76 116.52 128.16C117.747 128.533 118.787 129.067 119.64 129.76C120.493 130.453 121.147 131.28 121.6 132.24C122.053 133.2 122.28 134.267 122.28 135.44ZM115.16 130.64C114.147 130.64 113.107 130.72 112.04 130.88L112.52 131.6C112.253 131.947 111.92 132.467 111.52 133.16C111.12 133.853 110.68 134.693 110.2 135.68C109.72 136.64 109.187 137.72 108.6 138.92C108.04 140.12 107.44 141.387 106.8 142.72C108.88 142.72 110.773 142.533 112.48 142.16C114.187 141.76 115.64 141.227 116.84 140.56C118.067 139.867 119.013 139.067 119.68 138.16C120.373 137.253 120.72 136.28 120.72 135.24C120.72 133.853 120.253 132.747 119.32 131.92C118.387 131.067 117 130.64 115.16 130.64ZM124.6 158.4C123.08 158.24 121.867 157.573 120.96 156.4C120.053 155.227 119.6 153.733 119.6 151.92C119.6 150.853 119.76 149.747 120.08 148.6C120.4 147.453 120.853 146.347 121.44 145.28C122.027 144.187 122.72 143.16 123.52 142.2C124.32 141.24 125.187 140.413 126.12 139.72C127.587 138.627 128.96 138.08 130.24 138.08C131.093 138.533 131.933 139.48 132.76 140.92C132.893 140.92 133.013 140.92 133.12 140.92C133.227 140.893 133.347 140.88 133.48 140.88C134.893 140.88 135.6 142.133 135.6 144.64C135.6 146.32 135.32 147.92 134.76 149.44C134.227 150.933 133.467 152.293 132.48 153.52C131.52 154.747 130.36 155.787 129 156.64C127.667 157.467 126.2 158.053 124.6 158.4ZM126.64 145.8C126.187 146.413 125.76 147.08 125.36 147.8C124.96 148.52 124.613 149.253 124.32 150C124.027 150.72 123.8 151.427 123.64 152.12C123.48 152.787 123.4 153.387 123.4 153.92C123.4 154.56 123.507 155.173 123.72 155.76C123.933 156.347 124.173 156.68 124.44 156.76C125.64 156.493 126.733 156 127.72 155.28C128.733 154.533 129.6 153.613 130.32 152.52C131.067 151.427 131.64 150.187 132.04 148.8C132.467 147.413 132.68 145.933 132.68 144.36C132.68 143.667 132.64 143.12 132.56 142.72C132.48 142.32 132.347 141.973 132.16 141.68C130.987 142.027 129.933 142.587 129 143.36C128.093 144.133 127.307 144.947 126.64 145.8ZM148.416 156.12C147.91 155.693 147.563 155.16 147.376 154.52C147.216 153.88 147.136 153.333 147.136 152.88C147.136 152.32 147.203 151.84 147.336 151.44C147.23 151.44 146.99 151.653 146.616 152.08C146.243 152.507 145.83 153.013 145.376 153.6C144.95 154.187 144.523 154.76 144.096 155.32C143.67 155.88 143.35 156.293 143.136 156.56C142.79 156.933 142.456 157.227 142.136 157.44C141.843 157.653 141.603 157.773 141.416 157.8C140.99 157.773 140.536 157.68 140.056 157.52C139.603 157.387 139.163 157.187 138.736 156.92C138.336 156.653 137.976 156.333 137.656 155.96C137.363 155.587 137.163 155.16 137.056 154.68C137.056 153.933 137.07 153.32 137.096 152.84C137.15 152.36 137.243 151.84 137.376 151.28C137.616 150.267 137.963 149.12 138.416 147.84C138.896 146.56 139.443 145.307 140.056 144.08C140.67 142.827 141.35 141.667 142.096 140.6C142.87 139.507 143.683 138.653 144.536 138.04C144.776 138.04 145.056 138.067 145.376 138.12C145.696 138.147 146.016 138.213 146.336 138.32C146.683 138.427 147.003 138.56 147.296 138.72C147.616 138.853 147.883 139.04 148.096 139.28C147.856 139.547 147.243 140.44 146.256 141.96C145.296 143.48 144.216 145.667 143.016 148.52C142.883 148.813 142.723 149.24 142.536 149.8C142.35 150.36 142.163 150.947 141.976 151.56C141.79 152.173 141.63 152.773 141.496 153.36C141.39 153.947 141.336 154.413 141.336 154.76C141.336 154.973 141.363 155.133 141.416 155.24C141.496 155.347 141.563 155.427 141.616 155.48C142.016 155.32 142.523 154.88 143.136 154.16C143.75 153.44 144.603 152.333 145.696 150.84C145.963 150.467 146.27 150.04 146.616 149.56C146.99 149.08 147.363 148.573 147.736 148.04C148.11 147.48 148.456 146.907 148.776 146.32C149.123 145.733 149.403 145.147 149.616 144.56C149.723 144.24 149.856 143.867 150.016 143.44C150.203 142.987 150.416 142.52 150.656 142.04C150.923 141.56 151.216 141.08 151.536 140.6C151.883 140.093 152.283 139.627 152.736 139.2C153.083 139.2 153.456 139.24 153.856 139.32C154.256 139.4 154.63 139.507 154.976 139.64C155.35 139.747 155.67 139.88 155.936 140.04C156.203 140.173 156.403 140.32 156.536 140.48C156.056 141.653 155.523 142.813 154.936 143.96C154.35 145.107 153.803 146.24 153.296 147.36C152.79 148.453 152.363 149.547 152.016 150.64C151.67 151.733 151.496 152.8 151.496 153.84C151.496 154.4 151.536 154.893 151.616 155.32C151.723 155.72 151.83 156.067 151.936 156.36C152.043 156.627 152.136 156.853 152.216 157.04C152.323 157.227 152.376 157.387 152.376 157.52C152.376 157.547 152.35 157.587 152.296 157.64C152.27 157.667 152.243 157.68 152.216 157.68C152.03 157.68 151.79 157.64 151.496 157.56C151.203 157.48 150.87 157.36 150.496 157.2C150.15 157.067 149.79 156.907 149.416 156.72C149.07 156.533 148.736 156.333 148.416 156.12ZM156.342 156.2C156.475 155.427 156.702 154.413 157.022 153.16C157.369 151.88 157.769 150.533 158.222 149.12C158.675 147.68 159.155 146.24 159.662 144.8C160.169 143.36 160.662 142.067 161.142 140.92C161.489 140.093 161.795 139.453 162.062 139C162.329 138.52 162.622 138.12 162.942 137.8C163.315 137.853 163.702 137.947 164.102 138.08C164.502 138.213 164.889 138.373 165.262 138.56C165.635 138.747 165.969 138.947 166.262 139.16C166.555 139.347 166.782 139.533 166.942 139.72C166.222 140.573 165.582 141.547 165.022 142.64C164.489 143.733 163.942 145.133 163.382 146.84C164.822 145.56 166.089 144.333 167.182 143.16C168.302 141.987 169.342 140.68 170.302 139.24C170.462 139.107 170.742 139.04 171.142 139.04C171.515 139.04 171.875 139.107 172.222 139.24C172.569 139.347 172.809 139.507 172.942 139.72C172.462 141 172.222 142.267 172.222 143.52C172.222 144.693 172.395 145.573 172.742 146.16C172.715 146.32 172.529 146.627 172.182 147.08C171.862 147.533 171.502 147.96 171.102 148.36C170.382 147.987 169.742 147.48 169.182 146.84C168.622 146.173 168.209 145.453 167.942 144.68C166.689 145.56 165.622 146.427 164.742 147.28C163.862 148.107 163.102 149.04 162.462 150.08C161.849 151.093 161.315 152.267 160.862 153.6C160.435 154.933 160.022 156.52 159.622 158.36C159.382 158.333 159.089 158.24 158.742 158.08C158.422 157.947 158.089 157.773 157.742 157.56C157.422 157.347 157.129 157.12 156.862 156.88C156.595 156.64 156.422 156.413 156.342 156.2ZM183.206 149.96C183.206 148.44 183.513 146.973 184.126 145.56C184.766 144.12 185.593 142.853 186.606 141.76C187.646 140.64 188.819 139.747 190.126 139.08C191.459 138.387 192.833 138.04 194.246 138.04C195.633 138.04 196.699 138.387 197.446 139.08C198.193 139.773 198.566 140.76 198.566 142.04C198.566 142.653 198.473 143.253 198.286 143.84C198.126 144.4 197.899 144.907 197.606 145.36C197.339 145.813 197.019 146.187 196.646 146.48C196.273 146.747 195.899 146.88 195.526 146.88C195.206 146.88 194.873 146.787 194.526 146.6C194.206 146.387 193.939 146.12 193.726 145.8C195.513 144.173 196.406 142.693 196.406 141.36C196.406 140.587 196.099 140.2 195.486 140.2C194.953 140.2 194.286 140.453 193.486 140.96C192.686 141.467 191.913 142.133 191.166 142.96C190.019 144.24 189.139 145.667 188.526 147.24C187.939 148.787 187.646 150.413 187.646 152.12C187.646 154.28 188.126 155.573 189.086 156C189.486 155.947 189.953 155.827 190.486 155.64C191.019 155.453 191.593 155.213 192.206 154.92C192.819 154.6 193.446 154.24 194.086 153.84C194.753 153.44 195.393 153.013 196.006 152.56C196.113 152.64 196.206 152.76 196.286 152.92C196.366 153.08 196.406 153.227 196.406 153.36C195.953 153.92 195.433 154.467 194.846 155C194.259 155.533 193.646 156.027 193.006 156.48C192.366 156.907 191.739 157.267 191.126 157.56C190.539 157.88 190.019 158.08 189.566 158.16C188.686 158.08 187.859 157.8 187.086 157.32C186.313 156.867 185.633 156.267 185.046 155.52C184.486 154.773 184.033 153.92 183.686 152.96C183.366 152 183.206 151 183.206 149.96ZM204.483 158.4C202.963 158.24 201.749 157.573 200.843 156.4C199.936 155.227 199.483 153.733 199.483 151.92C199.483 150.853 199.643 149.747 199.963 148.6C200.283 147.453 200.736 146.347 201.323 145.28C201.909 144.187 202.603 143.16 203.403 142.2C204.203 141.24 205.069 140.413 206.003 139.72C207.469 138.627 208.843 138.08 210.123 138.08C210.976 138.533 211.816 139.48 212.643 140.92C212.776 140.92 212.896 140.92 213.003 140.92C213.109 140.893 213.229 140.88 213.363 140.88C214.776 140.88 215.483 142.133 215.483 144.64C215.483 146.32 215.203 147.92 214.643 149.44C214.109 150.933 213.349 152.293 212.363 153.52C211.403 154.747 210.243 155.787 208.883 156.64C207.549 157.467 206.083 158.053 204.483 158.4ZM206.523 145.8C206.069 146.413 205.643 147.08 205.243 147.8C204.843 148.52 204.496 149.253 204.203 150C203.909 150.72 203.683 151.427 203.523 152.12C203.363 152.787 203.283 153.387 203.283 153.92C203.283 154.56 203.389 155.173 203.603 155.76C203.816 156.347 204.056 156.68 204.323 156.76C205.523 156.493 206.616 156 207.603 155.28C208.616 154.533 209.483 153.613 210.203 152.52C210.949 151.427 211.523 150.187 211.923 148.8C212.349 147.413 212.563 145.933 212.563 144.36C212.563 143.667 212.523 143.12 212.443 142.72C212.363 142.32 212.229 141.973 212.043 141.68C210.869 142.027 209.816 142.587 208.883 143.36C207.976 144.133 207.189 144.947 206.523 145.8ZM223.899 137.6C224.592 137.813 225.246 138.293 225.859 139.04C226.472 139.76 226.926 140.56 227.219 141.44C226.926 142.16 226.472 143.027 225.859 144.04C225.246 145.053 224.632 146.093 224.019 147.16C223.406 148.2 222.846 149.2 222.339 150.16C221.859 151.093 221.579 151.867 221.499 152.48C221.926 152.027 222.392 151.507 222.899 150.92C223.432 150.307 223.939 149.707 224.419 149.12C224.926 148.507 225.392 147.96 225.819 147.48C226.246 146.973 226.579 146.6 226.819 146.36C227.326 145.827 227.926 145.213 228.619 144.52C229.312 143.8 230.032 143.133 230.779 142.52C231.552 141.88 232.326 141.347 233.099 140.92C233.872 140.467 234.579 140.24 235.219 140.24C235.912 140.24 236.486 140.48 236.939 140.96C237.419 141.413 237.792 141.893 238.059 142.4C238.059 142.453 237.952 142.533 237.739 142.64C237.552 142.72 237.272 142.973 236.899 143.4C236.526 143.88 236.099 144.547 235.619 145.4C235.166 146.227 234.712 147.133 234.259 148.12C233.832 149.08 233.472 150.067 233.179 151.08C232.886 152.093 232.739 153.013 232.739 153.84C232.739 154.507 232.819 154.933 232.979 155.12C233.166 155.307 233.419 155.4 233.739 155.4C234.032 155.4 234.339 155.333 234.659 155.2C234.979 155.067 235.232 155 235.419 155C235.526 155.053 235.606 155.173 235.659 155.36C235.739 155.52 235.779 155.667 235.779 155.8C235.566 155.987 235.312 156.173 235.019 156.36C234.726 156.547 234.419 156.72 234.099 156.88C233.779 157.04 233.459 157.173 233.139 157.28C232.846 157.387 232.579 157.44 232.339 157.44C231.566 157.44 230.926 157.32 230.419 157.08C229.939 156.867 229.552 156.573 229.259 156.2C228.992 155.827 228.806 155.387 228.699 154.88C228.592 154.347 228.539 153.787 228.539 153.2C228.539 152.88 228.566 152.52 228.619 152.12C228.672 151.72 228.779 151.253 228.939 150.72C229.099 150.16 229.326 149.507 229.619 148.76C229.912 147.987 230.286 147.067 230.739 146C230.686 146 230.326 146.187 229.659 146.56C228.992 146.933 228.272 147.507 227.499 148.28C226.246 149.48 225.112 150.667 224.099 151.84C223.112 153.013 222.099 154.32 221.059 155.76C220.472 156.587 219.952 157.28 219.499 157.84C219.072 158.427 218.699 158.813 218.379 159C217.819 158.68 217.406 158.227 217.139 157.64C216.872 157.08 216.672 156.493 216.539 155.88C216.539 155.373 216.606 154.733 216.739 153.96C216.899 153.187 217.099 152.333 217.339 151.4C217.606 150.44 217.926 149.44 218.299 148.4C218.672 147.36 219.086 146.32 219.539 145.28C220.552 142.933 221.472 141.093 222.299 139.76C223.152 138.427 223.686 137.707 223.899 137.6ZM241.381 141.68C241.247 141.52 241.127 141.187 241.021 140.68C240.914 140.147 240.861 139.693 240.861 139.32C241.554 139.373 242.221 139.427 242.861 139.48C243.501 139.507 244.087 139.533 244.621 139.56C245.021 138.76 245.447 137.973 245.901 137.2C246.381 136.4 246.834 135.68 247.261 135.04C247.714 134.373 248.127 133.813 248.501 133.36C248.901 132.907 249.207 132.613 249.421 132.48C249.687 132.48 250.021 132.533 250.421 132.64C250.847 132.72 251.274 132.84 251.701 133C252.127 133.133 252.514 133.28 252.861 133.44C253.207 133.6 253.447 133.76 253.581 133.92C252.781 134.933 252.087 135.88 251.501 136.76C250.941 137.613 250.327 138.6 249.661 139.72C250.194 139.72 250.727 139.707 251.261 139.68C251.821 139.653 252.381 139.613 252.941 139.56C253.074 139.693 253.181 139.867 253.261 140.08C253.341 140.267 253.381 140.467 253.381 140.68C252.074 141.16 250.487 141.427 248.621 141.48C247.954 142.76 247.354 144.04 246.821 145.32C246.314 146.573 245.874 147.787 245.501 148.96C245.154 150.133 244.874 151.24 244.661 152.28C244.474 153.32 244.381 154.253 244.381 155.08C244.381 156.253 244.821 156.907 245.701 157.04C246.501 156.933 247.261 156.733 247.981 156.44C248.701 156.147 249.341 155.773 249.901 155.32C250.061 155.56 250.154 155.76 250.181 155.92C250.021 156.16 249.741 156.44 249.341 156.76C248.967 157.08 248.554 157.387 248.101 157.68C247.647 158 247.207 158.267 246.781 158.48C246.354 158.693 246.034 158.813 245.821 158.84C245.154 158.813 244.487 158.667 243.821 158.4C243.154 158.133 242.541 157.8 241.981 157.4C241.447 157 241.007 156.56 240.661 156.08C240.314 155.573 240.141 155.08 240.141 154.6C240.141 153.96 240.221 153.16 240.381 152.2C240.567 151.213 240.821 150.147 241.141 149C241.461 147.853 241.834 146.653 242.261 145.4C242.687 144.147 243.154 142.907 243.661 141.68H241.381ZM266.883 140.84C267.15 140.84 267.456 140.893 267.803 141C268.176 141.08 268.51 141.2 268.803 141.36C269.096 141.493 269.336 141.64 269.523 141.8C269.736 141.96 269.843 142.107 269.843 142.24C269.31 143.36 268.816 144.493 268.363 145.64C267.91 146.76 267.523 147.84 267.203 148.88C266.883 149.92 266.63 150.893 266.443 151.8C266.283 152.707 266.203 153.493 266.203 154.16C266.203 154.907 266.283 155.533 266.443 156.04C266.603 156.52 266.87 156.867 267.243 157.08C266.923 157.293 266.51 157.467 266.003 157.6C265.496 157.733 265.043 157.8 264.643 157.8C263.203 157.8 262.483 156.813 262.483 154.84C262.483 153.32 262.99 151.24 264.003 148.6C263.47 149.827 262.856 150.987 262.163 152.08C261.47 153.147 260.763 154.093 260.043 154.92C259.323 155.747 258.59 156.427 257.843 156.96C257.123 157.467 256.456 157.773 255.843 157.88C254.856 157.827 254.056 157.36 253.443 156.48C252.83 155.573 252.523 154.427 252.523 153.04C252.523 151.547 252.843 149.973 253.483 148.32C254.123 146.667 254.936 145.133 255.923 143.72C256.936 142.307 258.03 141.133 259.203 140.2C260.376 139.24 261.51 138.733 262.603 138.68C262.87 138.76 263.163 138.92 263.483 139.16C263.83 139.4 264.15 139.68 264.443 140C264.763 140.32 265.03 140.653 265.243 141C265.456 141.32 265.576 141.6 265.603 141.84C264.536 142 263.43 142.52 262.283 143.4C261.163 144.28 260.136 145.347 259.203 146.6C258.296 147.827 257.55 149.147 256.963 150.56C256.376 151.973 256.083 153.293 256.083 154.52C256.083 155.027 256.27 155.347 256.643 155.48C257.416 155.32 258.31 154.667 259.323 153.52C260.336 152.347 261.563 150.547 263.003 148.12C263.27 147.64 263.563 147.107 263.883 146.52C264.23 145.933 264.576 145.32 264.923 144.68C265.27 144.04 265.603 143.4 265.923 142.76C266.27 142.093 266.59 141.453 266.883 140.84ZM271.8 149.96C271.8 148.44 272.106 146.973 272.72 145.56C273.36 144.12 274.186 142.853 275.2 141.76C276.24 140.64 277.413 139.747 278.72 139.08C280.053 138.387 281.426 138.04 282.84 138.04C284.226 138.04 285.293 138.387 286.04 139.08C286.786 139.773 287.16 140.76 287.16 142.04C287.16 142.653 287.066 143.253 286.88 143.84C286.72 144.4 286.493 144.907 286.2 145.36C285.933 145.813 285.613 146.187 285.24 146.48C284.866 146.747 284.493 146.88 284.12 146.88C283.8 146.88 283.466 146.787 283.12 146.6C282.8 146.387 282.533 146.12 282.32 145.8C284.106 144.173 285 142.693 285 141.36C285 140.587 284.693 140.2 284.08 140.2C283.546 140.2 282.88 140.453 282.08 140.96C281.28 141.467 280.506 142.133 279.76 142.96C278.613 144.24 277.733 145.667 277.12 147.24C276.533 148.787 276.24 150.413 276.24 152.12C276.24 154.28 276.72 155.573 277.68 156C278.08 155.947 278.546 155.827 279.08 155.64C279.613 155.453 280.186 155.213 280.8 154.92C281.413 154.6 282.04 154.24 282.68 153.84C283.346 153.44 283.986 153.013 284.6 152.56C284.706 152.64 284.8 152.76 284.88 152.92C284.96 153.08 285 153.227 285 153.36C284.546 153.92 284.026 154.467 283.44 155C282.853 155.533 282.24 156.027 281.6 156.48C280.96 156.907 280.333 157.267 279.72 157.56C279.133 157.88 278.613 158.08 278.16 158.16C277.28 158.08 276.453 157.8 275.68 157.32C274.906 156.867 274.226 156.267 273.64 155.52C273.08 154.773 272.626 153.92 272.28 152.96C271.96 152 271.8 151 271.8 149.96ZM290.56 141.68C290.427 141.52 290.307 141.187 290.2 140.68C290.094 140.147 290.04 139.693 290.04 139.32C290.734 139.373 291.4 139.427 292.04 139.48C292.68 139.507 293.267 139.533 293.8 139.56C294.2 138.76 294.627 137.973 295.08 137.2C295.56 136.4 296.014 135.68 296.44 135.04C296.894 134.373 297.307 133.813 297.68 133.36C298.08 132.907 298.387 132.613 298.6 132.48C298.867 132.48 299.2 132.533 299.6 132.64C300.027 132.72 300.454 132.84 300.88 133C301.307 133.133 301.694 133.28 302.04 133.44C302.387 133.6 302.627 133.76 302.76 133.92C301.96 134.933 301.267 135.88 300.68 136.76C300.12 137.613 299.507 138.6 298.84 139.72C299.374 139.72 299.907 139.707 300.44 139.68C301 139.653 301.56 139.613 302.12 139.56C302.254 139.693 302.36 139.867 302.44 140.08C302.52 140.267 302.56 140.467 302.56 140.68C301.254 141.16 299.667 141.427 297.8 141.48C297.134 142.76 296.534 144.04 296 145.32C295.494 146.573 295.054 147.787 294.68 148.96C294.334 150.133 294.054 151.24 293.84 152.28C293.654 153.32 293.56 154.253 293.56 155.08C293.56 156.253 294 156.907 294.88 157.04C295.68 156.933 296.44 156.733 297.16 156.44C297.88 156.147 298.52 155.773 299.08 155.32C299.24 155.56 299.334 155.76 299.36 155.92C299.2 156.16 298.92 156.44 298.52 156.76C298.147 157.08 297.734 157.387 297.28 157.68C296.827 158 296.387 158.267 295.96 158.48C295.534 158.693 295.214 158.813 295 158.84C294.334 158.813 293.667 158.667 293 158.4C292.334 158.133 291.72 157.8 291.16 157.4C290.627 157 290.187 156.56 289.84 156.08C289.494 155.573 289.32 155.08 289.32 154.6C289.32 153.96 289.4 153.16 289.56 152.2C289.747 151.213 290 150.147 290.32 149C290.64 147.853 291.014 146.653 291.44 145.4C291.867 144.147 292.334 142.907 292.84 141.68H290.56ZM316.583 140.44C316.476 142.093 316.183 143.52 315.703 144.72C315.223 145.893 314.529 146.933 313.623 147.84C312.743 148.72 311.663 149.52 310.383 150.24C309.103 150.96 307.609 151.653 305.903 152.32C305.903 152.48 305.889 152.653 305.863 152.84C305.863 153 305.863 153.173 305.863 153.36C305.863 153.707 305.889 154.067 305.943 154.44C305.996 154.813 306.089 155.16 306.223 155.48C306.356 155.8 306.543 156.067 306.783 156.28C307.023 156.467 307.329 156.56 307.703 156.56C308.423 156.56 309.129 156.4 309.823 156.08C310.516 155.76 311.169 155.373 311.783 154.92C312.423 154.44 313.009 153.933 313.543 153.4C314.103 152.84 314.596 152.333 315.023 151.88C315.289 152.12 315.516 152.347 315.703 152.56C314.503 154.16 313.183 155.493 311.743 156.56C310.329 157.6 308.983 158.267 307.703 158.56C305.863 158.347 304.423 157.68 303.383 156.56C302.369 155.413 301.863 154.04 301.863 152.44C301.863 151.347 302.009 150.24 302.303 149.12C302.623 147.973 303.049 146.88 303.583 145.84C304.143 144.773 304.783 143.773 305.503 142.84C306.249 141.907 307.036 141.093 307.863 140.4C308.716 139.707 309.583 139.16 310.463 138.76C311.369 138.36 312.263 138.16 313.143 138.16C314.369 138.32 315.516 139.08 316.583 140.44ZM313.823 141.76C313.103 141.867 312.356 142.16 311.583 142.64C310.809 143.12 310.076 143.76 309.383 144.56C308.716 145.36 308.103 146.293 307.543 147.36C306.983 148.427 306.543 149.573 306.223 150.8C308.356 149.733 310.129 148.427 311.543 146.88C312.956 145.307 313.716 143.6 313.823 141.76ZM317.475 156.2C317.608 155.427 317.835 154.413 318.155 153.16C318.501 151.88 318.901 150.533 319.355 149.12C319.808 147.68 320.288 146.24 320.795 144.8C321.301 143.36 321.795 142.067 322.275 140.92C322.621 140.093 322.928 139.453 323.195 139C323.461 138.52 323.755 138.12 324.075 137.8C324.448 137.853 324.835 137.947 325.235 138.08C325.635 138.213 326.021 138.373 326.395 138.56C326.768 138.747 327.101 138.947 327.395 139.16C327.688 139.347 327.915 139.533 328.075 139.72C327.355 140.573 326.715 141.547 326.155 142.64C325.621 143.733 325.075 145.133 324.515 146.84C325.955 145.56 327.221 144.333 328.315 143.16C329.435 141.987 330.475 140.68 331.435 139.24C331.595 139.107 331.875 139.04 332.275 139.04C332.648 139.04 333.008 139.107 333.355 139.24C333.701 139.347 333.941 139.507 334.075 139.72C333.595 141 333.355 142.267 333.355 143.52C333.355 144.693 333.528 145.573 333.875 146.16C333.848 146.32 333.661 146.627 333.315 147.08C332.995 147.533 332.635 147.96 332.235 148.36C331.515 147.987 330.875 147.48 330.315 146.84C329.755 146.173 329.341 145.453 329.075 144.68C327.821 145.56 326.755 146.427 325.875 147.28C324.995 148.107 324.235 149.04 323.595 150.08C322.981 151.093 322.448 152.267 321.995 153.6C321.568 154.933 321.155 156.52 320.755 158.36C320.515 158.333 320.221 158.24 319.875 158.08C319.555 157.947 319.221 157.773 318.875 157.56C318.555 157.347 318.261 157.12 317.995 156.88C317.728 156.64 317.555 156.413 317.475 156.2ZM118 202.72C117.573 202.747 117.053 203.027 116.44 203.56C115.827 204.067 115.16 204.733 114.44 205.56C113.747 206.36 113.013 207.253 112.24 208.24C111.493 209.227 110.76 210.213 110.04 211.2C109.347 212.16 108.693 213.067 108.08 213.92C107.467 214.773 106.947 215.453 106.52 215.96C105.933 215.72 105.427 215.373 105 214.92C104.573 214.44 104.267 213.853 104.08 213.16C104.213 212.333 104.4 211.48 104.64 210.6C104.88 209.693 105.187 208.76 105.56 207.8C105.96 206.84 106.44 205.84 107 204.8C107.587 203.733 108.293 202.613 109.12 201.44C108.72 201.467 108.173 201.76 107.48 202.32C106.787 202.853 106.04 203.56 105.24 204.44C104.44 205.293 103.613 206.267 102.76 207.36C101.907 208.427 101.107 209.48 100.36 210.52C99.3733 211.907 98.5467 213.12 97.88 214.16C97.24 215.2 96.7733 215.813 96.48 216C95.7867 215.493 95.3067 214.947 95.04 214.36C94.7733 213.773 94.5733 213.12 94.44 212.4C94.4667 211.76 94.56 210.96 94.72 210C94.9067 209.04 95.16 208.053 95.48 207.04C96.0933 205.093 96.88 203.16 97.84 201.24C98.8267 199.32 99.7733 197.56 100.68 195.96C101.427 196.12 102.093 196.373 102.68 196.72C103.293 197.067 103.933 197.573 104.6 198.24C104.333 199.067 103.92 199.947 103.36 200.88C102.8 201.787 102.213 202.747 101.6 203.76C100.987 204.773 100.427 205.813 99.92 206.88C99.4133 207.947 99.08 209.027 98.92 210.12C99.6667 209.053 100.547 207.827 101.56 206.44C102.6 205.053 103.653 203.747 104.72 202.52C105.813 201.293 106.893 200.253 107.96 199.4C109.027 198.547 109.987 198.12 110.84 198.12C111.16 198.12 111.507 198.173 111.88 198.28C112.253 198.387 112.6 198.52 112.92 198.68C113.24 198.84 113.507 199 113.72 199.16C113.933 199.293 114.053 199.4 114.08 199.48C113.947 200.013 113.627 200.747 113.12 201.68C112.64 202.587 112.12 203.547 111.56 204.56C111 205.573 110.48 206.56 110 207.52C109.52 208.453 109.24 209.2 109.16 209.76C110.467 207.973 111.693 206.36 112.84 204.92C113.987 203.453 115.067 202.2 116.08 201.16C117.093 200.12 118.027 199.32 118.88 198.76C119.76 198.2 120.587 197.92 121.36 197.92C121.893 197.92 122.387 198.067 122.84 198.36C123.32 198.627 123.653 199.027 123.84 199.56C123.6 200.36 123.2 201.32 122.64 202.44C122.107 203.56 121.56 204.747 121 206C120.44 207.227 119.933 208.44 119.48 209.64C119.053 210.84 118.84 211.92 118.84 212.88C118.84 213.44 118.92 213.813 119.08 214C119.24 214.16 119.467 214.24 119.76 214.24C120.08 214.24 120.373 214.187 120.64 214.08C120.933 213.947 121.147 213.88 121.28 213.88C121.44 213.987 121.533 214.12 121.56 214.28C121.587 214.44 121.6 214.587 121.6 214.72C121.067 215.147 120.52 215.493 119.96 215.76C119.4 216.053 118.773 216.2 118.08 216.2C117.44 216.2 116.907 216.093 116.48 215.88C116.08 215.667 115.747 215.373 115.48 215C115.213 214.627 115.027 214.2 114.92 213.72C114.813 213.24 114.76 212.72 114.76 212.16C114.76 211.253 114.88 210.36 115.12 209.48C115.36 208.573 115.64 207.72 115.96 206.92C116.307 206.093 116.667 205.333 117.04 204.64C117.413 203.92 117.733 203.28 118 202.72ZM130.186 216.4C128.666 216.24 127.453 215.573 126.546 214.4C125.639 213.227 125.186 211.733 125.186 209.92C125.186 208.853 125.346 207.747 125.666 206.6C125.986 205.453 126.439 204.347 127.026 203.28C127.613 202.187 128.306 201.16 129.106 200.2C129.906 199.24 130.773 198.413 131.706 197.72C133.173 196.627 134.546 196.08 135.826 196.08C136.679 196.533 137.519 197.48 138.346 198.92C138.479 198.92 138.599 198.92 138.706 198.92C138.813 198.893 138.933 198.88 139.066 198.88C140.479 198.88 141.186 200.133 141.186 202.64C141.186 204.32 140.906 205.92 140.346 207.44C139.813 208.933 139.053 210.293 138.066 211.52C137.106 212.747 135.946 213.787 134.586 214.64C133.253 215.467 131.786 216.053 130.186 216.4ZM132.226 203.8C131.773 204.413 131.346 205.08 130.946 205.8C130.546 206.52 130.199 207.253 129.906 208C129.613 208.72 129.386 209.427 129.226 210.12C129.066 210.787 128.986 211.387 128.986 211.92C128.986 212.56 129.093 213.173 129.306 213.76C129.519 214.347 129.759 214.68 130.026 214.76C131.226 214.493 132.319 214 133.306 213.28C134.319 212.533 135.186 211.613 135.906 210.52C136.653 209.427 137.226 208.187 137.626 206.8C138.053 205.413 138.266 203.933 138.266 202.36C138.266 201.667 138.226 201.12 138.146 200.72C138.066 200.32 137.933 199.973 137.746 199.68C136.573 200.027 135.519 200.587 134.586 201.36C133.679 202.133 132.893 202.947 132.226 203.8ZM149.602 195.6C150.296 195.813 150.949 196.293 151.562 197.04C152.176 197.76 152.629 198.56 152.922 199.44C152.629 200.16 152.176 201.027 151.562 202.04C150.949 203.053 150.336 204.093 149.722 205.16C149.109 206.2 148.549 207.2 148.042 208.16C147.562 209.093 147.282 209.867 147.202 210.48C147.629 210.027 148.096 209.507 148.602 208.92C149.136 208.307 149.642 207.707 150.122 207.12C150.629 206.507 151.096 205.96 151.522 205.48C151.949 204.973 152.282 204.6 152.522 204.36C153.029 203.827 153.629 203.213 154.322 202.52C155.016 201.8 155.736 201.133 156.482 200.52C157.256 199.88 158.029 199.347 158.802 198.92C159.576 198.467 160.282 198.24 160.922 198.24C161.616 198.24 162.189 198.48 162.642 198.96C163.122 199.413 163.496 199.893 163.762 200.4C163.762 200.453 163.656 200.533 163.442 200.64C163.256 200.72 162.976 200.973 162.602 201.4C162.229 201.88 161.802 202.547 161.322 203.4C160.869 204.227 160.416 205.133 159.962 206.12C159.536 207.08 159.176 208.067 158.882 209.08C158.589 210.093 158.442 211.013 158.442 211.84C158.442 212.507 158.522 212.933 158.682 213.12C158.869 213.307 159.122 213.4 159.442 213.4C159.736 213.4 160.042 213.333 160.362 213.2C160.682 213.067 160.936 213 161.122 213C161.229 213.053 161.309 213.173 161.362 213.36C161.442 213.52 161.482 213.667 161.482 213.8C161.269 213.987 161.016 214.173 160.722 214.36C160.429 214.547 160.122 214.72 159.802 214.88C159.482 215.04 159.162 215.173 158.842 215.28C158.549 215.387 158.282 215.44 158.042 215.44C157.269 215.44 156.629 215.32 156.122 215.08C155.642 214.867 155.256 214.573 154.962 214.2C154.696 213.827 154.509 213.387 154.402 212.88C154.296 212.347 154.242 211.787 154.242 211.2C154.242 210.88 154.269 210.52 154.322 210.12C154.376 209.72 154.482 209.253 154.642 208.72C154.802 208.16 155.029 207.507 155.322 206.76C155.616 205.987 155.989 205.067 156.442 204C156.389 204 156.029 204.187 155.362 204.56C154.696 204.933 153.976 205.507 153.202 206.28C151.949 207.48 150.816 208.667 149.802 209.84C148.816 211.013 147.802 212.32 146.762 213.76C146.176 214.587 145.656 215.28 145.202 215.84C144.776 216.427 144.402 216.813 144.082 217C143.522 216.68 143.109 216.227 142.842 215.64C142.576 215.08 142.376 214.493 142.242 213.88C142.242 213.373 142.309 212.733 142.442 211.96C142.602 211.187 142.802 210.333 143.042 209.4C143.309 208.44 143.629 207.44 144.002 206.4C144.376 205.36 144.789 204.32 145.242 203.28C146.256 200.933 147.176 199.093 148.002 197.76C148.856 196.427 149.389 195.707 149.602 195.6ZM197.375 202.72C196.948 202.747 196.428 203.027 195.815 203.56C195.202 204.067 194.535 204.733 193.815 205.56C193.122 206.36 192.388 207.253 191.615 208.24C190.868 209.227 190.135 210.213 189.415 211.2C188.722 212.16 188.068 213.067 187.455 213.92C186.842 214.773 186.322 215.453 185.895 215.96C185.308 215.72 184.802 215.373 184.375 214.92C183.948 214.44 183.642 213.853 183.455 213.16C183.588 212.333 183.775 211.48 184.015 210.6C184.255 209.693 184.562 208.76 184.935 207.8C185.335 206.84 185.815 205.84 186.375 204.8C186.962 203.733 187.668 202.613 188.495 201.44C188.095 201.467 187.548 201.76 186.855 202.32C186.162 202.853 185.415 203.56 184.615 204.44C183.815 205.293 182.988 206.267 182.135 207.36C181.282 208.427 180.482 209.48 179.735 210.52C178.748 211.907 177.922 213.12 177.255 214.16C176.615 215.2 176.148 215.813 175.855 216C175.162 215.493 174.682 214.947 174.415 214.36C174.148 213.773 173.948 213.12 173.815 212.4C173.842 211.76 173.935 210.96 174.095 210C174.282 209.04 174.535 208.053 174.855 207.04C175.468 205.093 176.255 203.16 177.215 201.24C178.202 199.32 179.148 197.56 180.055 195.96C180.802 196.12 181.468 196.373 182.055 196.72C182.668 197.067 183.308 197.573 183.975 198.24C183.708 199.067 183.295 199.947 182.735 200.88C182.175 201.787 181.588 202.747 180.975 203.76C180.362 204.773 179.802 205.813 179.295 206.88C178.788 207.947 178.455 209.027 178.295 210.12C179.042 209.053 179.922 207.827 180.935 206.44C181.975 205.053 183.028 203.747 184.095 202.52C185.188 201.293 186.268 200.253 187.335 199.4C188.402 198.547 189.362 198.12 190.215 198.12C190.535 198.12 190.882 198.173 191.255 198.28C191.628 198.387 191.975 198.52 192.295 198.68C192.615 198.84 192.882 199 193.095 199.16C193.308 199.293 193.428 199.4 193.455 199.48C193.322 200.013 193.002 200.747 192.495 201.68C192.015 202.587 191.495 203.547 190.935 204.56C190.375 205.573 189.855 206.56 189.375 207.52C188.895 208.453 188.615 209.2 188.535 209.76C189.842 207.973 191.068 206.36 192.215 204.92C193.362 203.453 194.442 202.2 195.455 201.16C196.468 200.12 197.402 199.32 198.255 198.76C199.135 198.2 199.962 197.92 200.735 197.92C201.268 197.92 201.762 198.067 202.215 198.36C202.695 198.627 203.028 199.027 203.215 199.56C202.975 200.36 202.575 201.32 202.015 202.44C201.482 203.56 200.935 204.747 200.375 206C199.815 207.227 199.308 208.44 198.855 209.64C198.428 210.84 198.215 211.92 198.215 212.88C198.215 213.44 198.295 213.813 198.455 214C198.615 214.16 198.842 214.24 199.135 214.24C199.455 214.24 199.748 214.187 200.015 214.08C200.308 213.947 200.522 213.88 200.655 213.88C200.815 213.987 200.908 214.12 200.935 214.28C200.962 214.44 200.975 214.587 200.975 214.72C200.442 215.147 199.895 215.493 199.335 215.76C198.775 216.053 198.148 216.2 197.455 216.2C196.815 216.2 196.282 216.093 195.855 215.88C195.455 215.667 195.122 215.373 194.855 215C194.588 214.627 194.402 214.2 194.295 213.72C194.188 213.24 194.135 212.72 194.135 212.16C194.135 211.253 194.255 210.36 194.495 209.48C194.735 208.573 195.015 207.72 195.335 206.92C195.682 206.093 196.042 205.333 196.415 204.64C196.788 203.92 197.108 203.28 197.375 202.72ZM218.641 198.84C218.908 198.84 219.214 198.893 219.561 199C219.934 199.08 220.268 199.2 220.561 199.36C220.854 199.493 221.094 199.64 221.281 199.8C221.494 199.96 221.601 200.107 221.601 200.24C221.068 201.36 220.574 202.493 220.121 203.64C219.668 204.76 219.281 205.84 218.961 206.88C218.641 207.92 218.388 208.893 218.201 209.8C218.041 210.707 217.961 211.493 217.961 212.16C217.961 212.907 218.041 213.533 218.201 214.04C218.361 214.52 218.628 214.867 219.001 215.08C218.681 215.293 218.268 215.467 217.761 215.6C217.254 215.733 216.801 215.8 216.401 215.8C214.961 215.8 214.241 214.813 214.241 212.84C214.241 211.32 214.748 209.24 215.761 206.6C215.228 207.827 214.614 208.987 213.921 210.08C213.228 211.147 212.521 212.093 211.801 212.92C211.081 213.747 210.348 214.427 209.601 214.96C208.881 215.467 208.214 215.773 207.601 215.88C206.614 215.827 205.814 215.36 205.201 214.48C204.588 213.573 204.281 212.427 204.281 211.04C204.281 209.547 204.601 207.973 205.241 206.32C205.881 204.667 206.694 203.133 207.681 201.72C208.694 200.307 209.788 199.133 210.961 198.2C212.134 197.24 213.268 196.733 214.361 196.68C214.628 196.76 214.921 196.92 215.241 197.16C215.588 197.4 215.908 197.68 216.201 198C216.521 198.32 216.788 198.653 217.001 199C217.214 199.32 217.334 199.6 217.361 199.84C216.294 200 215.188 200.52 214.041 201.4C212.921 202.28 211.894 203.347 210.961 204.6C210.054 205.827 209.308 207.147 208.721 208.56C208.134 209.973 207.841 211.293 207.841 212.52C207.841 213.027 208.028 213.347 208.401 213.48C209.174 213.32 210.068 212.667 211.081 211.52C212.094 210.347 213.321 208.547 214.761 206.12C215.028 205.64 215.321 205.107 215.641 204.52C215.988 203.933 216.334 203.32 216.681 202.68C217.028 202.04 217.361 201.4 217.681 200.76C218.028 200.093 218.348 199.453 218.641 198.84ZM223.354 212.76C223.354 212.52 223.367 212.213 223.394 211.84C223.447 211.467 223.527 210.987 223.634 210.4C223.74 209.813 223.874 209.107 224.034 208.28C224.22 207.427 224.434 206.413 224.674 205.24C224.727 205 224.834 204.587 224.994 204C225.154 203.413 225.367 202.787 225.634 202.12C225.927 201.427 226.287 200.787 226.714 200.2C227.14 199.587 227.66 199.133 228.274 198.84C228.727 198.893 229.327 199.147 230.074 199.6C230.847 200.027 231.5 200.627 232.034 201.4C230.86 202.787 229.967 204.213 229.354 205.68C228.767 207.147 228.207 208.747 227.674 210.48C227.38 211.413 227.114 212.213 226.874 212.88C226.66 213.547 226.554 214.2 226.554 214.84C226.554 215.32 226.54 215.667 226.514 215.88C226.514 216.093 226.447 216.2 226.314 216.2C226.234 216.2 226.034 216.133 225.714 216C225.394 215.867 225.06 215.653 224.714 215.36C224.367 215.093 224.047 214.747 223.754 214.32C223.487 213.893 223.354 213.373 223.354 212.76ZM235.634 188.44C235.714 189.64 235.807 190.693 235.914 191.6C236.047 192.48 236.194 193.24 236.354 193.88C236.514 194.52 236.7 195.053 236.914 195.48C237.154 195.907 237.42 196.28 237.714 196.6C237.66 196.627 237.54 196.64 237.354 196.64C236.66 196.64 235.927 196.253 235.154 195.48C234.407 194.68 233.754 193.68 233.194 192.48C232.447 193.147 231.66 193.693 230.834 194.12C230.007 194.52 229.274 194.72 228.634 194.72C227.834 194.72 227.114 194.373 226.474 193.68C227.567 193.307 228.58 192.787 229.514 192.12C230.447 191.453 231.34 190.613 232.194 189.6L232.074 188.96C232.607 188.587 233.42 188.4 234.514 188.4C234.834 188.4 235.06 188.4 235.194 188.4C235.354 188.4 235.5 188.413 235.634 188.44ZM237.592 199.68C237.458 199.52 237.338 199.187 237.232 198.68C237.125 198.147 237.072 197.693 237.072 197.32C237.765 197.373 238.432 197.427 239.072 197.48C239.712 197.507 240.298 197.533 240.832 197.56C241.232 196.76 241.658 195.973 242.112 195.2C242.592 194.4 243.045 193.68 243.472 193.04C243.925 192.373 244.338 191.813 244.712 191.36C245.112 190.907 245.418 190.613 245.632 190.48C245.898 190.48 246.232 190.533 246.632 190.64C247.058 190.72 247.485 190.84 247.912 191C248.338 191.133 248.725 191.28 249.072 191.44C249.418 191.6 249.658 191.76 249.792 191.92C248.992 192.933 248.298 193.88 247.712 194.76C247.152 195.613 246.538 196.6 245.872 197.72C246.405 197.72 246.938 197.707 247.472 197.68C248.032 197.653 248.592 197.613 249.152 197.56C249.285 197.693 249.392 197.867 249.472 198.08C249.552 198.267 249.592 198.467 249.592 198.68C248.285 199.16 246.698 199.427 244.832 199.48C244.165 200.76 243.565 202.04 243.032 203.32C242.525 204.573 242.085 205.787 241.712 206.96C241.365 208.133 241.085 209.24 240.872 210.28C240.685 211.32 240.592 212.253 240.592 213.08C240.592 214.253 241.032 214.907 241.912 215.04C242.712 214.933 243.472 214.733 244.192 214.44C244.912 214.147 245.552 213.773 246.112 213.32C246.272 213.56 246.365 213.76 246.392 213.92C246.232 214.16 245.952 214.44 245.552 214.76C245.178 215.08 244.765 215.387 244.312 215.68C243.858 216 243.418 216.267 242.992 216.48C242.565 216.693 242.245 216.813 242.032 216.84C241.365 216.813 240.698 216.667 240.032 216.4C239.365 216.133 238.752 215.8 238.192 215.4C237.658 215 237.218 214.56 236.872 214.08C236.525 213.573 236.352 213.08 236.352 212.6C236.352 211.96 236.432 211.16 236.592 210.2C236.778 209.213 237.032 208.147 237.352 207C237.672 205.853 238.045 204.653 238.472 203.4C238.898 202.147 239.365 200.907 239.872 199.68H237.592ZM248.334 214.2C248.467 213.427 248.694 212.413 249.014 211.16C249.361 209.88 249.761 208.533 250.214 207.12C250.667 205.68 251.147 204.24 251.654 202.8C252.161 201.36 252.654 200.067 253.134 198.92C253.481 198.093 253.787 197.453 254.054 197C254.321 196.52 254.614 196.12 254.934 195.8C255.307 195.853 255.694 195.947 256.094 196.08C256.494 196.213 256.881 196.373 257.254 196.56C257.627 196.747 257.961 196.947 258.254 197.16C258.547 197.347 258.774 197.533 258.934 197.72C258.214 198.573 257.574 199.547 257.014 200.64C256.481 201.733 255.934 203.133 255.374 204.84C256.814 203.56 258.081 202.333 259.174 201.16C260.294 199.987 261.334 198.68 262.294 197.24C262.454 197.107 262.734 197.04 263.134 197.04C263.507 197.04 263.867 197.107 264.214 197.24C264.561 197.347 264.801 197.507 264.934 197.72C264.454 199 264.214 200.267 264.214 201.52C264.214 202.693 264.387 203.573 264.734 204.16C264.707 204.32 264.521 204.627 264.174 205.08C263.854 205.533 263.494 205.96 263.094 206.36C262.374 205.987 261.734 205.48 261.174 204.84C260.614 204.173 260.201 203.453 259.934 202.68C258.681 203.56 257.614 204.427 256.734 205.28C255.854 206.107 255.094 207.04 254.454 208.08C253.841 209.093 253.307 210.267 252.854 211.6C252.427 212.933 252.014 214.52 251.614 216.36C251.374 216.333 251.081 216.24 250.734 216.08C250.414 215.947 250.081 215.773 249.734 215.56C249.414 215.347 249.121 215.12 248.854 214.88C248.587 214.64 248.414 214.413 248.334 214.2ZM279.747 198.44C279.64 200.093 279.347 201.52 278.867 202.72C278.387 203.893 277.694 204.933 276.787 205.84C275.907 206.72 274.827 207.52 273.547 208.24C272.267 208.96 270.774 209.653 269.067 210.32C269.067 210.48 269.054 210.653 269.027 210.84C269.027 211 269.027 211.173 269.027 211.36C269.027 211.707 269.054 212.067 269.107 212.44C269.16 212.813 269.254 213.16 269.387 213.48C269.52 213.8 269.707 214.067 269.947 214.28C270.187 214.467 270.494 214.56 270.867 214.56C271.587 214.56 272.294 214.4 272.987 214.08C273.68 213.76 274.334 213.373 274.947 212.92C275.587 212.44 276.174 211.933 276.707 211.4C277.267 210.84 277.76 210.333 278.187 209.88C278.454 210.12 278.68 210.347 278.867 210.56C277.667 212.16 276.347 213.493 274.907 214.56C273.494 215.6 272.147 216.267 270.867 216.56C269.027 216.347 267.587 215.68 266.547 214.56C265.534 213.413 265.027 212.04 265.027 210.44C265.027 209.347 265.174 208.24 265.467 207.12C265.787 205.973 266.214 204.88 266.747 203.84C267.307 202.773 267.947 201.773 268.667 200.84C269.414 199.907 270.2 199.093 271.027 198.4C271.88 197.707 272.747 197.16 273.627 196.76C274.534 196.36 275.427 196.16 276.307 196.16C277.534 196.32 278.68 197.08 279.747 198.44ZM276.987 199.76C276.267 199.867 275.52 200.16 274.747 200.64C273.974 201.12 273.24 201.76 272.547 202.56C271.88 203.36 271.267 204.293 270.707 205.36C270.147 206.427 269.707 207.573 269.387 208.8C271.52 207.733 273.294 206.427 274.707 204.88C276.12 203.307 276.88 201.6 276.987 199.76ZM291.37 207.96C291.37 206.44 291.677 204.973 292.29 203.56C292.93 202.12 293.757 200.853 294.77 199.76C295.81 198.64 296.983 197.747 298.29 197.08C299.623 196.387 300.997 196.04 302.41 196.04C303.797 196.04 304.863 196.387 305.61 197.08C306.357 197.773 306.73 198.76 306.73 200.04C306.73 200.653 306.637 201.253 306.45 201.84C306.29 202.4 306.063 202.907 305.77 203.36C305.503 203.813 305.183 204.187 304.81 204.48C304.437 204.747 304.063 204.88 303.69 204.88C303.37 204.88 303.037 204.787 302.69 204.6C302.37 204.387 302.103 204.12 301.89 203.8C303.677 202.173 304.57 200.693 304.57 199.36C304.57 198.587 304.263 198.2 303.65 198.2C303.117 198.2 302.45 198.453 301.65 198.96C300.85 199.467 300.077 200.133 299.33 200.96C298.183 202.24 297.303 203.667 296.69 205.24C296.103 206.787 295.81 208.413 295.81 210.12C295.81 212.28 296.29 213.573 297.25 214C297.65 213.947 298.117 213.827 298.65 213.64C299.183 213.453 299.757 213.213 300.37 212.92C300.983 212.6 301.61 212.24 302.25 211.84C302.917 211.44 303.557 211.013 304.17 210.56C304.277 210.64 304.37 210.76 304.45 210.92C304.53 211.08 304.57 211.227 304.57 211.36C304.117 211.92 303.597 212.467 303.01 213C302.423 213.533 301.81 214.027 301.17 214.48C300.53 214.907 299.903 215.267 299.29 215.56C298.703 215.88 298.183 216.08 297.73 216.16C296.85 216.08 296.023 215.8 295.25 215.32C294.477 214.867 293.797 214.267 293.21 213.52C292.65 212.773 292.197 211.92 291.85 210.96C291.53 210 291.37 209 291.37 207.96ZM312.905 193.96C312.745 193.827 312.598 193.613 312.465 193.32C312.331 193 312.265 192.707 312.265 192.44C312.931 191.32 313.411 190.2 313.705 189.08C313.998 187.933 314.145 186.653 314.145 185.24C314.145 184.173 314.065 183 313.905 181.72C314.571 181.773 315.225 181.893 315.865 182.08C316.531 182.24 317.118 182.453 317.625 182.72C318.158 182.96 318.598 183.253 318.945 183.6C319.291 183.92 319.505 184.24 319.585 184.56C318.571 189.013 316.345 192.147 312.905 193.96ZM328.536 198.44C328.429 200.093 328.136 201.52 327.656 202.72C327.176 203.893 326.483 204.933 325.576 205.84C324.696 206.72 323.616 207.52 322.336 208.24C321.056 208.96 319.563 209.653 317.856 210.32C317.856 210.48 317.843 210.653 317.816 210.84C317.816 211 317.816 211.173 317.816 211.36C317.816 211.707 317.843 212.067 317.896 212.44C317.949 212.813 318.043 213.16 318.176 213.48C318.309 213.8 318.496 214.067 318.736 214.28C318.976 214.467 319.283 214.56 319.656 214.56C320.376 214.56 321.083 214.4 321.776 214.08C322.469 213.76 323.123 213.373 323.736 212.92C324.376 212.44 324.963 211.933 325.496 211.4C326.056 210.84 326.549 210.333 326.976 209.88C327.243 210.12 327.469 210.347 327.656 210.56C326.456 212.16 325.136 213.493 323.696 214.56C322.283 215.6 320.936 216.267 319.656 216.56C317.816 216.347 316.376 215.68 315.336 214.56C314.323 213.413 313.816 212.04 313.816 210.44C313.816 209.347 313.963 208.24 314.256 207.12C314.576 205.973 315.003 204.88 315.536 203.84C316.096 202.773 316.736 201.773 317.456 200.84C318.203 199.907 318.989 199.093 319.816 198.4C320.669 197.707 321.536 197.16 322.416 196.76C323.323 196.36 324.216 196.16 325.096 196.16C326.323 196.32 327.469 197.08 328.536 198.44ZM325.776 199.76C325.056 199.867 324.309 200.16 323.536 200.64C322.763 201.12 322.029 201.76 321.336 202.56C320.669 203.36 320.056 204.293 319.496 205.36C318.936 206.427 318.496 207.573 318.176 208.8C320.309 207.733 322.083 206.427 323.496 204.88C324.909 203.307 325.669 201.6 325.776 199.76ZM344.188 199.08C344.161 199.587 344.068 200.12 343.908 200.68C343.774 201.213 343.601 201.707 343.388 202.16C343.174 202.587 342.948 202.947 342.708 203.24C342.468 203.533 342.241 203.68 342.028 203.68C341.734 203.653 341.561 203.453 341.508 203.08C341.508 203 341.534 202.88 341.588 202.72C341.668 202.533 341.748 202.333 341.828 202.12C341.908 201.907 341.974 201.693 342.028 201.48C342.108 201.267 342.148 201.08 342.148 200.92C342.148 200.547 342.054 200.24 341.868 200C341.708 199.733 341.481 199.6 341.188 199.6C340.121 199.6 339.308 200.267 338.748 201.6C338.188 202.933 337.908 204.893 337.908 207.48C337.908 207.747 337.921 207.907 337.948 207.96C338.508 207.933 339.001 207.92 339.428 207.92C339.881 207.893 340.321 207.88 340.748 207.88C340.774 207.933 340.788 208.04 340.788 208.2C340.788 208.44 340.734 208.613 340.628 208.72C340.014 208.853 339.521 208.973 339.148 209.08C338.801 209.16 338.534 209.24 338.348 209.32C338.161 209.4 338.041 209.493 337.988 209.6C337.961 209.68 337.948 209.8 337.948 209.96C337.948 210.173 337.948 210.387 337.948 210.6C337.974 210.813 337.988 211.08 337.988 211.4C337.988 213.64 337.374 215.44 336.148 216.8C334.948 218.16 333.268 218.947 331.108 219.16C330.734 219.133 330.348 219.027 329.948 218.84C329.548 218.653 329.161 218.413 328.788 218.12C328.441 217.827 328.134 217.493 327.868 217.12C327.601 216.773 327.414 216.413 327.308 216.04C327.308 215.027 327.521 214.067 327.948 213.16C328.374 212.227 328.948 211.413 329.668 210.72C330.414 210 331.281 209.427 332.268 209C333.281 208.547 334.374 208.28 335.548 208.2C335.548 207.533 335.481 206.88 335.348 206.24C335.214 205.6 335.068 204.987 334.908 204.4C334.774 203.787 334.641 203.2 334.508 202.64C334.374 202.053 334.308 201.48 334.308 200.92C334.308 200.2 334.454 199.493 334.748 198.8C335.041 198.08 335.428 197.427 335.908 196.84C336.388 196.227 336.948 195.707 337.588 195.28C338.228 194.853 338.894 194.56 339.588 194.4C339.881 194.48 340.268 194.72 340.748 195.12C341.254 195.493 341.748 195.92 342.228 196.4C342.708 196.88 343.134 197.373 343.508 197.88C343.881 198.36 344.108 198.76 344.188 199.08ZM330.988 217.32C331.628 217.053 332.228 216.667 332.788 216.16C333.374 215.653 333.881 215.08 334.308 214.44C334.734 213.8 335.068 213.12 335.308 212.4C335.574 211.68 335.708 210.973 335.708 210.28C335.174 210.36 334.588 210.613 333.948 211.04C333.308 211.44 332.708 211.933 332.148 212.52C331.588 213.08 331.121 213.667 330.748 214.28C330.374 214.893 330.188 215.427 330.188 215.88C330.188 216.467 330.454 216.947 330.988 217.32ZM346.576 199.68C346.443 199.52 346.323 199.187 346.216 198.68C346.109 198.147 346.056 197.693 346.056 197.32C346.749 197.373 347.416 197.427 348.056 197.48C348.696 197.507 349.283 197.533 349.816 197.56C350.216 196.76 350.643 195.973 351.096 195.2C351.576 194.4 352.029 193.68 352.456 193.04C352.909 192.373 353.323 191.813 353.696 191.36C354.096 190.907 354.403 190.613 354.616 190.48C354.883 190.48 355.216 190.533 355.616 190.64C356.043 190.72 356.469 190.84 356.896 191C357.323 191.133 357.709 191.28 358.056 191.44C358.403 191.6 358.643 191.76 358.776 191.92C357.976 192.933 357.283 193.88 356.696 194.76C356.136 195.613 355.523 196.6 354.856 197.72C355.389 197.72 355.923 197.707 356.456 197.68C357.016 197.653 357.576 197.613 358.136 197.56C358.269 197.693 358.376 197.867 358.456 198.08C358.536 198.267 358.576 198.467 358.576 198.68C357.269 199.16 355.683 199.427 353.816 199.48C353.149 200.76 352.549 202.04 352.016 203.32C351.509 204.573 351.069 205.787 350.696 206.96C350.349 208.133 350.069 209.24 349.856 210.28C349.669 211.32 349.576 212.253 349.576 213.08C349.576 214.253 350.016 214.907 350.896 215.04C351.696 214.933 352.456 214.733 353.176 214.44C353.896 214.147 354.536 213.773 355.096 213.32C355.256 213.56 355.349 213.76 355.376 213.92C355.216 214.16 354.936 214.44 354.536 214.76C354.163 215.08 353.749 215.387 353.296 215.68C352.843 216 352.403 216.267 351.976 216.48C351.549 216.693 351.229 216.813 351.016 216.84C350.349 216.813 349.683 216.667 349.016 216.4C348.349 216.133 347.736 215.8 347.176 215.4C346.643 215 346.203 214.56 345.856 214.08C345.509 213.573 345.336 213.08 345.336 212.6C345.336 211.96 345.416 211.16 345.576 210.2C345.763 209.213 346.016 208.147 346.336 207C346.656 205.853 347.029 204.653 347.456 203.4C347.883 202.147 348.349 200.907 348.856 199.68H346.576ZM94.92 270.32C94.92 270.08 94.9333 269.787 94.96 269.44C95.0133 269.067 95.0933 268.587 95.2 268C95.3067 267.387 95.44 266.653 95.6 265.8C95.7867 264.947 96.0133 263.92 96.28 262.72C96.3333 262.453 96.4533 262.027 96.64 261.44C96.8267 260.853 97.0667 260.24 97.36 259.6C97.68 258.933 98.0533 258.293 98.48 257.68C98.9333 257.067 99.4667 256.613 100.08 256.32C100.533 256.427 101.133 256.707 101.88 257.16C102.627 257.587 103.267 258.187 103.8 258.96C103.187 259.653 102.667 260.347 102.24 261.04C101.84 261.733 101.467 262.453 101.12 263.2C100.8 263.947 100.493 264.72 100.2 265.52C99.9333 266.32 99.6267 267.16 99.28 268.04C98.9867 268.787 98.72 269.56 98.48 270.36C98.24 271.133 98.1067 271.813 98.08 272.4C98.08 272.88 98.0667 273.213 98.04 273.4C98.04 273.613 97.9733 273.72 97.84 273.72C97.7333 273.72 97.52 273.653 97.2 273.52C96.88 273.387 96.5467 273.187 96.2 272.92C95.88 272.627 95.5867 272.267 95.32 271.84C95.0533 271.413 94.92 270.907 94.92 270.32ZM102.56 252.96C102.56 252.8 102.6 252.56 102.68 252.24C102.547 252.107 102.427 251.907 102.32 251.64C102.24 251.373 102.2 251.133 102.2 250.92C102.2 250.68 102.227 250.36 102.28 249.96C102.36 249.533 102.453 249.08 102.56 248.6C102.667 248.12 102.8 247.627 102.96 247.12C103.12 246.587 103.28 246.107 103.44 245.68C103.76 245.68 104.147 245.773 104.6 245.96C105.08 246.12 105.56 246.347 106.04 246.64C106.52 246.907 106.96 247.213 107.36 247.56C107.76 247.88 108.067 248.187 108.28 248.48C107.987 248.773 107.6 249.187 107.12 249.72C106.64 250.227 106.173 250.773 105.72 251.36C105.267 251.92 104.853 252.453 104.48 252.96C104.107 253.467 103.867 253.827 103.76 254.04C103.44 253.987 103.16 253.853 102.92 253.64C102.68 253.4 102.56 253.173 102.56 252.96ZM104.573 265.96C104.573 264.44 104.88 262.973 105.493 261.56C106.133 260.12 106.96 258.853 107.973 257.76C109.013 256.64 110.186 255.747 111.493 255.08C112.826 254.387 114.2 254.04 115.613 254.04C117 254.04 118.066 254.387 118.813 255.08C119.56 255.773 119.933 256.76 119.933 258.04C119.933 258.653 119.84 259.253 119.653 259.84C119.493 260.4 119.266 260.907 118.973 261.36C118.706 261.813 118.386 262.187 118.013 262.48C117.64 262.747 117.266 262.88 116.893 262.88C116.573 262.88 116.24 262.787 115.893 262.6C115.573 262.387 115.306 262.12 115.093 261.8C116.88 260.173 117.773 258.693 117.773 257.36C117.773 256.587 117.466 256.2 116.853 256.2C116.32 256.2 115.653 256.453 114.853 256.96C114.053 257.467 113.28 258.133 112.533 258.96C111.386 260.24 110.506 261.667 109.893 263.24C109.306 264.787 109.013 266.413 109.013 268.12C109.013 270.28 109.493 271.573 110.453 272C110.853 271.947 111.32 271.827 111.853 271.64C112.386 271.453 112.96 271.213 113.573 270.92C114.186 270.6 114.813 270.24 115.453 269.84C116.12 269.44 116.76 269.013 117.373 268.56C117.48 268.64 117.573 268.76 117.653 268.92C117.733 269.08 117.773 269.227 117.773 269.36C117.32 269.92 116.8 270.467 116.213 271C115.626 271.533 115.013 272.027 114.373 272.48C113.733 272.907 113.106 273.267 112.493 273.56C111.906 273.88 111.386 274.08 110.933 274.16C110.053 274.08 109.226 273.8 108.453 273.32C107.68 272.867 107 272.267 106.413 271.52C105.853 270.773 105.4 269.92 105.053 268.96C104.733 268 104.573 267 104.573 265.96ZM121.17 270.32C121.17 270.08 121.183 269.787 121.21 269.44C121.263 269.067 121.343 268.587 121.45 268C121.557 267.387 121.69 266.653 121.85 265.8C122.037 264.947 122.263 263.92 122.53 262.72C122.583 262.453 122.703 262.027 122.89 261.44C123.077 260.853 123.317 260.24 123.61 259.6C123.93 258.933 124.303 258.293 124.73 257.68C125.183 257.067 125.717 256.613 126.33 256.32C126.783 256.427 127.383 256.707 128.13 257.16C128.877 257.587 129.517 258.187 130.05 258.96C129.437 259.653 128.917 260.347 128.49 261.04C128.09 261.733 127.717 262.453 127.37 263.2C127.05 263.947 126.743 264.72 126.45 265.52C126.183 266.32 125.877 267.16 125.53 268.04C125.237 268.787 124.97 269.56 124.73 270.36C124.49 271.133 124.357 271.813 124.33 272.4C124.33 272.88 124.317 273.213 124.29 273.4C124.29 273.613 124.223 273.72 124.09 273.72C123.983 273.72 123.77 273.653 123.45 273.52C123.13 273.387 122.797 273.187 122.45 272.92C122.13 272.627 121.837 272.267 121.57 271.84C121.303 271.413 121.17 270.907 121.17 270.32ZM128.81 252.96C128.81 252.8 128.85 252.56 128.93 252.24C128.797 252.107 128.677 251.907 128.57 251.64C128.49 251.373 128.45 251.133 128.45 250.92C128.45 250.68 128.477 250.36 128.53 249.96C128.61 249.533 128.703 249.08 128.81 248.6C128.917 248.12 129.05 247.627 129.21 247.12C129.37 246.587 129.53 246.107 129.69 245.68C130.01 245.68 130.397 245.773 130.85 245.96C131.33 246.12 131.81 246.347 132.29 246.64C132.77 246.907 133.21 247.213 133.61 247.56C134.01 247.88 134.317 248.187 134.53 248.48C134.237 248.773 133.85 249.187 133.37 249.72C132.89 250.227 132.423 250.773 131.97 251.36C131.517 251.92 131.103 252.453 130.73 252.96C130.357 253.467 130.117 253.827 130.01 254.04C129.69 253.987 129.41 253.853 129.17 253.64C128.93 253.4 128.81 253.173 128.81 252.96ZM141.954 265.48C141.954 264.76 142.141 263.72 142.514 262.36C142.914 260.973 143.421 259.453 144.034 257.8C144.648 256.12 145.341 254.4 146.114 252.64C146.888 250.853 147.661 249.187 148.434 247.64C149.234 246.093 149.994 244.76 150.714 243.64C151.434 242.493 152.061 241.733 152.594 241.36C153.021 241.44 153.474 241.64 153.954 241.96C154.461 242.253 154.928 242.6 155.354 243C155.781 243.373 156.154 243.773 156.474 244.2C156.794 244.627 156.981 245 157.034 245.32C155.674 246.44 154.328 247.84 152.994 249.52C151.661 251.173 150.421 253.013 149.274 255.04C148.154 257.067 147.168 259.24 146.314 261.56C145.461 263.853 144.821 266.2 144.394 268.6C144.074 268.52 143.754 268.427 143.434 268.32C143.141 268.187 142.888 268.013 142.674 267.8C142.461 267.587 142.288 267.293 142.154 266.92C142.021 266.547 141.954 266.067 141.954 265.48ZM141.074 276.08C140.754 276.08 140.448 276 140.154 275.84C139.861 275.707 139.594 275.533 139.354 275.32C139.141 275.133 138.968 274.92 138.834 274.68C138.701 274.467 138.634 274.293 138.634 274.16C138.634 273.84 138.674 273.427 138.754 272.92C138.834 272.413 138.954 271.933 139.114 271.48C139.274 271 139.474 270.6 139.714 270.28C139.954 269.933 140.221 269.76 140.514 269.76C141.261 269.76 142.008 270.027 142.754 270.56C143.528 271.067 144.101 271.64 144.474 272.28C144.154 272.627 143.874 273.013 143.634 273.44C143.394 273.893 143.154 274.307 142.914 274.68C142.674 275.08 142.408 275.413 142.114 275.68C141.821 275.947 141.474 276.08 141.074 276.08Z" fill="white"/>
</g>
<defs>
<clipPath id="clip0">
<rect width="500" height="500" fill="white"/>
</clipPath>
</defs>
</svg>
