<svg width="48" height="48" viewBox="0 0 48 48" fill="none" xmlns="http://www.w3.org/2000/svg">
<path d="M30.495 32.2201L33.855 28.8601C34.3076 28.4131 34.8801 28.1072 35.5032 27.9794C36.1263 27.8516 36.773 27.9074 37.365 28.1401L41.46 29.7751C42.0582 30.0179 42.5712 30.4323 42.9342 30.9662C43.2972 31.5001 43.4941 32.1295 43.5 32.7751V40.2751C43.4965 40.7142 43.4042 41.1482 43.2286 41.5507C43.053 41.9533 42.7978 42.3161 42.4782 42.6174C42.1587 42.9187 41.7815 43.1522 41.3694 43.3039C40.9572 43.4556 40.5186 43.5223 40.08 43.5001C11.385 41.7151 5.595 17.4151 4.5 8.11506C4.44917 7.65837 4.49561 7.19608 4.63627 6.75863C4.77694 6.32117 5.00863 5.91845 5.3161 5.57697C5.62358 5.23548 5.99988 4.96297 6.42024 4.77736C6.8406 4.59175 7.2955 4.49724 7.755 4.50006H15C15.6465 4.50197 16.2777 4.69726 16.8123 5.06081C17.3469 5.42435 17.7606 5.93952 18 6.54006L19.635 10.6351C19.8754 11.2247 19.9367 11.872 19.8113 12.4963C19.6859 13.1205 19.3794 13.694 18.93 14.1451L15.57 17.5051C15.57 17.5051 17.505 30.6001 30.495 32.2201Z" fill="#000A16"/>
</svg>
